<svg width="137" height="24" viewBox="0 0 137 24" fill="none" xmlns="http://www.w3.org/2000/svg">
<path opacity="0.8" fill-rule="evenodd" clip-rule="evenodd" d="M14.9388 0C14.9388 3.96201 13.3649 7.76174 10.5633 10.5633C10.0898 11.0368 9.58774 11.4753 9.06122 11.877V23.9924C9.06322 20.0332 10.6369 16.2365 13.4367 13.4367C13.9102 12.9632 14.4123 12.5247 14.9388 12.123V0H14.9388ZM14.9388 23.9941C14.9388 23.9961 14.9388 23.998 14.9388 24H9.06122L14.9388 24V23.9941Z" fill="#F2994A"/>
<path opacity="0.8" fill-rule="evenodd" clip-rule="evenodd" d="M9.06122 0.00415039C9.06012 2.40584 8.10558 4.70891 6.40725 6.40724C4.70794 8.10655 2.40319 9.06121 0 9.06121V14.9388C3.29235 14.9388 6.47264 13.8519 9.06122 11.877V0.00415039Z" fill="#F2994A"/>
<path opacity="0.8" fill-rule="evenodd" clip-rule="evenodd" d="M14.9387 23.9941C14.9403 21.593 15.8948 19.2906 17.5927 17.5927C19.292 15.8934 21.5968 14.9387 23.9999 14.9387V9.06119C20.7076 9.06119 17.5273 10.148 14.9387 12.123V23.9941Z" fill="#F2994A"/>
<path fill-rule="evenodd" clip-rule="evenodd" d="M10.5633 10.5633C13.3649 7.76174 14.9388 3.96201 14.9388 0H9.06122V11.877C9.58774 11.4753 10.0898 11.0368 10.5633 10.5633Z" fill="#F2994A"/>
<path fill-rule="evenodd" clip-rule="evenodd" d="M9.06117 23.9924C9.06117 23.995 9.06117 23.9975 9.06117 24H14.9387V12.123C14.4122 12.5247 13.9102 12.9632 13.4366 13.4367C10.6369 16.2365 9.06317 20.0332 9.06117 23.9924Z" fill="#F2994A"/>
<path fill-rule="evenodd" clip-rule="evenodd" d="M96.4544 8.9519H99.8625C99.7228 7.91307 99.4251 6.98968 98.9695 6.1817C98.5199 5.36765 97.9458 4.68118 97.2472 4.12228C96.5486 3.55731 95.7527 3.12902 94.8597 2.83742C93.9667 2.54582 93.0008 2.40002 91.962 2.40002C90.3339 2.40002 88.8759 2.77971 87.588 3.53908C86.3001 4.29846 85.2825 5.39499 84.5353 6.82869C83.7881 8.25631 83.4144 9.97553 83.4144 11.9864C83.4144 13.9911 83.785 15.7103 84.5262 17.144C85.2673 18.5777 86.2818 19.6742 87.5697 20.4336C88.8576 21.193 90.3217 21.5727 91.962 21.5727C93.0737 21.5727 94.0852 21.4087 94.9964 21.0806C95.9077 20.7465 96.7035 20.2848 97.3839 19.6955C98.0643 19.1002 98.6141 18.4137 99.0332 17.6361C99.4585 16.8585 99.7349 16.0262 99.8625 15.1393L96.4544 15.121C96.3511 15.6678 96.1628 16.1538 95.8894 16.579C95.6221 17.0043 95.291 17.3627 94.8962 17.6543C94.5074 17.9459 94.0669 18.1677 93.5749 18.3195C93.0889 18.4653 92.5664 18.5382 92.0075 18.5382C90.9991 18.5382 90.103 18.2922 89.3193 17.8001C88.5417 17.302 87.9282 16.5669 87.4786 15.5949C87.0351 14.6168 86.8134 13.414 86.8134 11.9864C86.8134 10.583 87.0351 9.39537 87.4786 8.42337C87.9221 7.4453 88.5357 6.70415 89.3193 6.19993C90.103 5.68963 91.0021 5.43448 92.0166 5.43448C92.5877 5.43448 93.1192 5.51346 93.6113 5.6714C94.1095 5.82328 94.5529 6.05109 94.9417 6.35484C95.3305 6.65859 95.6555 7.02916 95.9168 7.46656C96.178 7.89789 96.3572 8.393 96.4544 8.9519ZM120.846 21.3175V2.65517H117.548V21.3175H120.846ZM126.744 20.6705C127.747 21.2841 128.946 21.5909 130.344 21.5909C131.516 21.5909 132.537 21.3783 133.406 20.953C134.274 20.5217 134.961 19.9264 135.465 19.167C135.969 18.4015 136.261 17.5237 136.34 16.5335H133.187C133.09 17.0377 132.91 17.466 132.649 17.8183C132.388 18.1707 132.063 18.441 131.674 18.6293C131.291 18.8116 130.857 18.9027 130.371 18.9027C129.685 18.9027 129.086 18.7205 128.576 18.356C128.072 17.9854 127.68 17.4599 127.4 16.7795C127.121 16.093 126.981 15.2729 126.981 14.3191C126.981 13.3775 127.121 12.5695 127.4 11.8952C127.686 11.2209 128.084 10.7045 128.594 10.3461C129.104 9.98161 129.697 9.79936 130.371 9.79936C131.167 9.79936 131.802 10.0272 132.276 10.4828C132.755 10.9323 133.059 11.4943 133.187 12.1686H136.34C136.267 11.1602 135.969 10.2793 135.447 9.52598C134.924 8.76661 134.223 8.18037 133.342 7.76727C132.467 7.3481 131.462 7.13851 130.325 7.13851C128.959 7.13851 127.774 7.4453 126.772 8.05887C125.775 8.66637 125.004 9.51687 124.457 10.6104C123.91 11.6978 123.637 12.9523 123.637 14.3738C123.637 15.7893 123.904 17.0407 124.439 18.1282C124.98 19.2095 125.748 20.057 126.744 20.6705ZM106.84 21.6C105.953 21.6 105.155 21.4421 104.444 21.1262C103.739 20.8042 103.18 20.3303 102.767 19.7046C102.36 19.0789 102.157 18.3074 102.157 17.3901C102.157 16.6003 102.302 15.9472 102.594 15.4309C102.886 14.9145 103.283 14.5014 103.788 14.1916C104.292 13.8817 104.86 13.6479 105.492 13.4899C106.13 13.3259 106.789 13.2074 107.469 13.1345C108.289 13.0495 108.954 12.9735 109.465 12.9067C109.975 12.8338 110.346 12.7245 110.576 12.5787C110.813 12.4268 110.932 12.1929 110.932 11.877V11.8223C110.932 11.1359 110.728 10.6043 110.321 10.2276C109.914 9.85099 109.328 9.66267 108.563 9.66267C107.755 9.66267 107.114 9.83884 106.64 10.1912C106.172 10.5435 105.856 10.9597 105.692 11.4396L102.612 11.0022C102.855 10.1517 103.256 9.44093 103.815 8.86988C104.374 8.29276 105.057 7.86143 105.865 7.57591C106.673 7.28431 107.566 7.13851 108.544 7.13851C109.219 7.13851 109.89 7.21749 110.558 7.37544C111.227 7.53339 111.837 7.79461 112.39 8.15911C112.943 8.51753 113.386 9.00657 113.72 9.62622C114.06 10.2459 114.231 11.0204 114.231 11.9499V21.3175H111.059V19.3948H110.95C110.75 19.7836 110.467 20.1481 110.103 20.4883C109.744 20.8224 109.292 21.0928 108.745 21.2993C108.204 21.4998 107.569 21.6 106.84 21.6ZM107.697 19.1761C108.359 19.1761 108.933 19.0455 109.419 18.7843C109.905 18.517 110.279 18.1646 110.54 17.7272C110.807 17.2898 110.941 16.8129 110.941 16.2966V14.6472C110.838 14.7322 110.662 14.8112 110.412 14.8841C110.169 14.957 109.896 15.0208 109.592 15.0755C109.289 15.1302 108.988 15.1788 108.69 15.2213C108.393 15.2638 108.134 15.3003 107.916 15.3306C107.424 15.3975 106.983 15.5068 106.594 15.6587C106.206 15.8106 105.899 16.0232 105.674 16.2966C105.449 16.5639 105.337 16.9101 105.337 17.3354C105.337 17.9429 105.559 18.4015 106.002 18.7114C106.445 19.0212 107.01 19.1761 107.697 19.1761ZM71.4042 13.1163V21.3175H68.1055V7.32076H71.2584V9.69912H71.4224C71.7444 8.91544 72.2577 8.29276 72.9624 7.83106C73.6732 7.36936 74.551 7.13851 75.5959 7.13851C76.5619 7.13851 77.4033 7.34506 78.1201 7.75816C78.843 8.17126 79.4019 8.76965 79.7968 9.55332C80.1977 10.337 80.3952 11.2877 80.3891 12.4055V21.3175H77.0904V12.9158C77.0904 11.9803 76.8474 11.2482 76.3614 10.7197C75.8815 10.1912 75.2163 9.92693 74.3658 9.92693C73.7886 9.92693 73.2753 10.0545 72.8257 10.3097C72.3823 10.5587 72.033 10.9202 71.7778 11.394C71.5287 11.8679 71.4042 12.442 71.4042 13.1163ZM55.045 20.6888C56.0474 21.2902 57.232 21.5909 58.5989 21.5909C59.9658 21.5909 61.1504 21.2902 62.1528 20.6888C63.1551 20.0873 63.9297 19.246 64.4764 18.1646C65.0293 17.0833 65.3057 15.8197 65.3057 14.3738C65.3057 12.928 65.0293 11.6613 64.4764 10.5739C63.9297 9.48649 63.1551 8.64207 62.1528 8.04065C61.1504 7.43922 59.9658 7.13851 58.5989 7.13851C57.232 7.13851 56.0474 7.43922 55.045 8.04065C54.0427 8.64207 53.2651 9.48649 52.7122 10.5739C52.1655 11.6613 51.8921 12.928 51.8921 14.3738C51.8921 15.8197 52.1655 17.0833 52.7122 18.1646C53.2651 19.246 54.0427 20.0873 55.045 20.6888ZM60.4761 18.3377C59.9779 18.7448 59.3583 18.9483 58.6171 18.9483C57.8577 18.9483 57.2259 18.7448 56.7217 18.3377C56.2236 17.9247 55.85 17.3718 55.6009 16.6793C55.3579 15.9867 55.2364 15.2152 55.2364 14.3647C55.2364 13.5081 55.3579 12.7336 55.6009 12.041C55.85 11.3424 56.2236 10.7865 56.7217 10.3734C57.2259 9.96034 57.8577 9.75379 58.6171 9.75379C59.3583 9.75379 59.9779 9.96034 60.4761 10.3734C60.9742 10.7865 61.3448 11.3424 61.5878 12.041C61.8369 12.7336 61.9614 13.5081 61.9614 14.3647C61.9614 15.2152 61.8369 15.9867 61.5878 16.6793C61.3448 17.3718 60.9742 17.9247 60.4761 18.3377ZM42.8958 21.3175V7.32076H46.0943V9.65356H46.2401C46.4952 8.84558 46.9326 8.2229 47.5523 7.7855C48.178 7.34202 48.8918 7.12029 49.6937 7.12029C49.876 7.12029 50.0795 7.1294 50.3043 7.14762C50.5351 7.15977 50.7265 7.18104 50.8783 7.21141V10.2459C50.7386 10.1973 50.5169 10.1547 50.2131 10.1183C49.9155 10.0758 49.6269 10.0545 49.3474 10.0545C48.746 10.0545 48.2053 10.1851 47.7254 10.4463C47.2516 10.7015 46.878 11.0569 46.6046 11.5125C46.3312 11.9681 46.1945 12.4936 46.1945 13.089V21.3175H42.8958ZM39.3807 21.3175V2.65517H35.9999V21.3175H39.3807Z" fill="#272525"/>
</svg>
