<svg width="16" height="16" viewBox="0 0 16 16" fill="none" xmlns="http://www.w3.org/2000/svg">
<path d="M2 3.33333L2 12.6667C2 13.403 2.59695 14 3.33333 14L3.66667 14C4.40305 14 5 13.403 5 12.6667L5 3.33333C5 2.59695 4.40305 2 3.66667 2L3.33333 2C2.59695 2 2 2.59695 2 3.33333Z" stroke="currentColor" stroke-linecap="round" stroke-linejoin="round"/>
<path d="M5 6L2 6" stroke="currentColor" stroke-linecap="round" stroke-linejoin="round"/>
<path d="M14 6L11 6" stroke="currentColor" stroke-linecap="round" stroke-linejoin="round"/>
<path d="M5 10L2 10" stroke="currentColor" stroke-linecap="round" stroke-linejoin="round"/>
<path d="M14 10L11 10" stroke="currentColor" stroke-linecap="round" stroke-linejoin="round"/>
<path d="M11 3.33333L11 12.6667C11 13.403 11.597 14 12.3333 14L12.6667 14C13.403 14 14 13.403 14 12.6667L14 3.33333C14 2.59695 13.403 2 12.6667 2L12.3333 2C11.597 2 11 2.59695 11 3.33333Z" stroke="currentColor" stroke-linecap="round" stroke-linejoin="round"/>
<path d="M6.58578 9.41422L9.41421 6.58579" stroke="currentColor" stroke-linecap="round" stroke-linejoin="round"/>
<path d="M6.58578 6.58578L9.41421 9.41421" stroke="currentColor" stroke-linecap="round" stroke-linejoin="round"/>
</svg>
