<svg width="12" height="14" viewBox="0 0 12 14" fill="none" xmlns="http://www.w3.org/2000/svg">
<path fill-rule="evenodd" clip-rule="evenodd" d="M0.182 13.305C0.303333 13.3917 0.468 13.435 0.676 13.435C0.962 13.435 1.24367 13.3483 1.521 13.175C1.79833 13.0103 2.05833 12.7937 2.301 12.525C2.55233 12.2563 2.77333 11.9703 2.964 11.667C3.16333 11.3637 3.32367 11.069 3.445 10.783C3.575 10.5057 3.653 10.276 3.679 10.094L4.459 5.011H5.954V4.439H4.537L4.706 3.36C4.80133 2.75334 4.96167 2.281 5.187 1.943C5.421 1.59634 5.73733 1.423 6.136 1.423C6.422 1.423 6.67767 1.488 6.903 1.618L7.189 1.787H7.293L7.566 1.28C7.592 1.23667 7.61367 1.189 7.631 1.137C7.657 1.085 7.67 1.04167 7.67 1.007C7.67 0.93767 7.64833 0.881336 7.605 0.838003C7.57033 0.786003 7.49233 0.72967 7.371 0.669003C7.30167 0.643003 7.22367 0.621336 7.137 0.604003C7.05033 0.578003 6.95933 0.565002 6.864 0.565002C6.53467 0.565002 6.20967 0.651669 5.889 0.825003C5.56833 0.98967 5.265 1.21067 4.979 1.488C4.693 1.75667 4.43733 2.047 4.212 2.359C3.98667 2.66234 3.80033 2.957 3.653 3.243C3.51433 3.52034 3.432 3.75434 3.406 3.945L3.328 4.439H2.249V5.011H3.25L2.405 10.692C2.31833 11.2813 2.17533 11.745 1.976 12.083C1.77667 12.4297 1.508 12.603 1.17 12.603C0.953333 12.603 0.788667 12.564 0.676 12.486L0.39 12.278H0.312L0.0779999 12.746C0.026 12.85 0 12.9367 0 13.006C0 13.1187 0.0606667 13.2183 0.182 13.305ZM5.90545 9.98999C5.82745 10.1027 5.78845 10.211 5.78845 10.315H6.65945C6.70279 10.211 6.75045 10.1113 6.80245 10.016C6.85445 9.91199 6.93245 9.78199 7.03645 9.62599C7.14045 9.46132 7.30079 9.23166 7.51745 8.93699C7.73412 8.64232 8.03312 8.25232 8.41445 7.76699L9.45445 10.341H9.49345L11.2745 9.92499V9.82099L10.3385 9.44399L9.37645 6.98699C9.80112 6.50166 10.1521 6.11166 10.4295 5.81699C10.7068 5.52232 10.9235 5.29266 11.0795 5.12799C11.2441 4.96332 11.3568 4.83332 11.4175 4.73799C11.4868 4.63399 11.5215 4.53432 11.5215 4.43899H10.7025C10.6678 4.52566 10.6288 4.61666 10.5855 4.71199C10.5421 4.79866 10.4728 4.91566 10.3775 5.06299C10.2908 5.20166 10.1565 5.39666 9.97445 5.64799C9.79245 5.89932 9.54545 6.22866 9.23345 6.63599L8.31045 4.30899H8.27145L6.43845 4.72499V4.82899L7.38745 5.21899L8.27145 7.40299C7.78612 7.95766 7.38312 8.40399 7.06245 8.74199C6.74179 9.07999 6.48612 9.34432 6.29545 9.53499C6.11345 9.72566 5.98345 9.87732 5.90545 9.98999Z" fill="#828282"/>
</svg>
