<svg width="16" height="16" viewBox="0 0 16 16" fill="none" xmlns="http://www.w3.org/2000/svg">
<path d="M12.5 11.3333H5" stroke="currentColor" stroke-linecap="round" stroke-linejoin="round"/>
<path d="M10.5 9.33333L12.5 11.3333L10.5 13.3333" stroke="currentColor" stroke-linecap="round" stroke-linejoin="round"/>
<path d="M7.66667 4.33333C7.66667 3.59695 7.06971 3 6.33333 3C5.59695 3 5 3.59695 5 4.33333V5.66667C5 6.40305 5.59695 7 6.33333 7C7.06971 7 7.66667 6.40305 7.66667 5.66667V4.33333Z" stroke="currentColor" stroke-linecap="round" stroke-linejoin="round"/>
<path d="M12.3333 4.33333C12.3333 3.59695 11.7364 3 11 3C10.2636 3 9.66667 3.59695 9.66667 4.33333V5.66667C9.66667 6.40305 10.2636 7 11 7C11.7364 7 12.3333 6.40305 12.3333 5.66667V4.33333Z" stroke="currentColor" stroke-linecap="round" stroke-linejoin="round"/>
<path d="M3 7H3.00667" stroke="currentColor" stroke-linecap="round" stroke-linejoin="round"/>
</svg>
