<svg width="570" height="100" viewBox="0 0 570 100" fill="none" xmlns="http://www.w3.org/2000/svg">
<path opacity="0.8" fill-rule="evenodd" clip-rule="evenodd" d="M63.2036 0C63.2036 16.5084 56.6457 32.3406 44.9725 44.0138C42.9995 45.9868 40.9076 47.8137 38.7138 49.4875L38.7138 100C38.7138 83.4916 45.2718 67.6594 56.9449 55.9862C58.9179 54.0132 61.0098 52.1863 63.2036 50.5125L63.2036 0Z" fill="#F2994A"/>
<path opacity="0.8" fill-rule="evenodd" clip-rule="evenodd" d="M38.7138 0.0239868C38.7075 10.0286 34.7304 19.6221 27.6556 26.6969C20.5752 33.7773 10.972 37.7551 0.95874 37.7551V62.2449C14.6768 62.2449 27.9281 57.7165 38.7138 49.4875V0.0239868Z" fill="#F2994A"/>
<path opacity="0.8" fill-rule="evenodd" clip-rule="evenodd" d="M63.2036 99.976C63.21 89.9714 67.187 80.3779 74.2618 73.3031C81.3423 66.2227 90.9454 62.2449 100.959 62.2449V37.7551C87.2406 37.7551 73.9894 42.2835 63.2036 50.5125V99.976Z" fill="#F2994A"/>
<path fill-rule="evenodd" clip-rule="evenodd" d="M44.9725 44.0138C56.6457 32.3406 63.2036 16.5084 63.2036 0H38.7138V49.4875C40.9076 47.8137 42.9995 45.9868 44.9725 44.0138Z" fill="#F2994A"/>
<path fill-rule="evenodd" clip-rule="evenodd" d="M38.7138 99.9656C38.7138 99.9771 38.7138 99.9885 38.7138 100H63.2036C63.2036 99.9913 63.2036 99.9825 63.2036 99.9737V50.5125C61.0098 52.1863 58.9179 54.0132 56.9449 55.9862C45.2799 67.6513 38.7229 83.4696 38.7138 99.9656Z" fill="#F2994A"/>
<path fill-rule="evenodd" clip-rule="evenodd" d="M402.852 37.2995H417.053C416.47 32.9711 415.23 29.1236 413.332 25.757C411.459 22.3651 409.067 19.5048 406.156 17.1761C403.245 14.822 399.929 13.0375 396.208 11.8225C392.487 10.6075 388.462 10 384.134 10C377.35 10 371.275 11.582 365.909 14.7461C360.543 17.9101 356.303 22.479 353.189 28.4528C350.076 34.4012 348.519 41.5646 348.519 49.943C348.519 58.2962 350.063 65.4596 353.151 71.4333C356.24 77.4071 360.467 81.976 365.833 85.14C371.199 88.3041 377.299 89.8861 384.134 89.8861C388.766 89.8861 392.981 89.2027 396.777 87.8358C400.574 86.4436 403.89 84.5199 406.725 82.0646C409.56 79.5839 411.851 76.7236 413.598 73.4836C415.369 70.2436 416.521 66.7758 417.053 63.0802L402.852 63.0043C402.422 65.2824 401.637 67.3074 400.498 69.0793C399.385 70.8511 398.005 72.3446 396.36 73.5596C394.74 74.7746 392.905 75.6985 390.854 76.3313C388.829 76.9388 386.652 77.2425 384.324 77.2425C380.122 77.2425 376.388 76.2174 373.123 74.1671C369.883 72.0914 367.326 69.0286 365.453 64.9786C363.605 60.9033 362.682 55.8915 362.682 49.943C362.682 44.0959 363.605 39.1473 365.453 35.0973C367.301 31.022 369.858 27.9339 373.123 25.8329C376.388 23.7067 380.134 22.6436 384.362 22.6436C386.741 22.6436 388.956 22.9726 391.006 23.6308C393.082 24.2636 394.93 25.2128 396.55 26.4784C398.17 27.744 399.524 29.2881 400.612 31.1106C401.701 32.9078 402.447 34.9707 402.852 37.2995ZM504.485 88.823V11.0631H490.74V88.823H504.485ZM529.06 86.1272C533.237 88.6838 538.236 89.962 544.058 89.962C548.943 89.962 553.196 89.0761 556.815 87.3042C560.435 85.507 563.295 83.0264 565.396 79.8624C567.497 76.673 568.712 73.0153 569.041 68.8894H555.904C555.499 70.9903 554.752 72.7749 553.664 74.243C552.576 75.7111 551.221 76.8375 549.601 77.6222C548.007 78.3816 546.197 78.7613 544.172 78.7613C541.311 78.7613 538.818 78.0019 536.692 76.4831C534.591 74.9391 532.958 72.7496 531.794 69.9146C530.63 67.0543 530.047 63.6371 530.047 59.663C530.047 55.7396 530.63 52.373 531.794 49.5634C532.984 46.7537 534.642 44.6021 536.768 43.1087C538.894 41.5899 541.362 40.8306 544.172 40.8306C547.488 40.8306 550.133 41.7798 552.107 43.6782C554.107 45.5513 555.373 47.8927 555.904 50.7024H569.041C568.738 46.5006 567.497 42.8302 565.32 39.6915C563.143 36.5274 560.22 34.0848 556.55 32.3635C552.905 30.617 548.715 29.7437 543.982 29.7437C538.287 29.7437 533.351 31.022 529.174 33.5785C525.023 36.1098 521.808 39.6535 519.53 44.2098C517.252 48.7407 516.113 53.9677 516.113 59.8908C516.113 65.7886 517.227 71.003 519.454 75.5339C521.707 80.0396 524.909 83.5706 529.06 86.1272ZM446.127 90C442.432 90 439.103 89.3419 436.141 88.0256C433.205 86.6841 430.876 84.7097 429.155 82.1025C427.459 79.4953 426.611 76.2807 426.611 72.4585C426.611 69.1679 427.219 66.4468 428.434 64.2952C429.649 62.1436 431.307 60.4224 433.408 59.1315C435.509 57.8405 437.875 56.866 440.508 56.2079C443.166 55.5244 445.912 55.0308 448.747 54.7271C452.164 54.3727 454.936 54.0563 457.062 53.7779C459.188 53.4741 460.733 53.0185 461.694 52.411C462.682 51.7782 463.175 50.8037 463.175 49.4874V49.2596C463.175 46.3993 462.327 44.1845 460.631 42.6151C458.935 41.0457 456.493 40.261 453.303 40.261C449.937 40.261 447.266 40.9951 445.292 42.4632C443.343 43.9313 442.027 45.6652 441.343 47.6649L428.51 45.8424C429.522 42.2987 431.193 39.3371 433.522 36.9578C435.85 34.5531 438.698 32.7559 442.065 31.5662C445.431 30.3512 449.152 29.7437 453.227 29.7437C456.037 29.7437 458.834 30.0728 461.618 30.7309C464.403 31.389 466.947 32.4774 469.25 33.9962C471.554 35.4896 473.401 37.5273 474.794 40.1092C476.211 42.691 476.92 45.9184 476.92 49.7912V88.823H463.707V80.8116H463.251C462.416 82.4316 461.239 83.9503 459.72 85.3678C458.227 86.76 456.341 87.8864 454.063 88.747C451.81 89.5823 449.165 90 446.127 90ZM449.696 79.9003C452.455 79.9003 454.847 79.3561 456.872 78.2677C458.897 77.1539 460.454 75.6858 461.543 73.8633C462.656 72.0408 463.213 70.0538 463.213 67.9022V61.0299C462.783 61.3843 462.049 61.7133 461.011 62.0171C459.998 62.3208 458.859 62.5866 457.594 62.8144C456.328 63.0422 455.075 63.2447 453.835 63.4219C452.595 63.5991 451.519 63.751 450.608 63.8775C448.557 64.156 446.722 64.6116 445.102 65.2444C443.482 65.8772 442.204 66.7632 441.267 67.9022C440.331 69.016 439.862 70.4588 439.862 72.2307C439.862 74.7619 440.786 76.673 442.634 77.9639C444.482 79.2549 446.836 79.9003 449.696 79.9003ZM298.477 54.6512V88.823H284.732V30.5031H297.869V40.4129H298.552C299.894 37.1476 302.033 34.5531 304.969 32.6293C307.931 30.7056 311.588 29.7437 315.942 29.7437C319.967 29.7437 323.473 30.6043 326.459 32.3256C329.472 34.0468 331.8 36.5401 333.446 39.8054C335.116 43.0707 335.939 47.0321 335.914 51.6896V88.823H322.169V53.8158C322.169 49.9177 321.156 46.8676 319.131 44.6654C317.132 42.4632 314.36 41.3621 310.816 41.3621C308.412 41.3621 306.273 41.8937 304.4 42.9568C302.552 43.9946 301.096 45.5007 300.033 47.4751C298.995 49.4495 298.477 51.8415 298.477 54.6512ZM230.313 86.2031C234.49 88.7091 239.426 89.962 245.121 89.962C250.816 89.962 255.752 88.7091 259.929 86.2031C264.105 83.6972 267.333 80.1914 269.611 75.6858C271.914 71.1802 273.066 65.9152 273.066 59.8908C273.066 53.8665 271.914 48.5888 269.611 44.0579C267.333 39.527 264.105 36.0085 259.929 33.5026C255.752 30.9967 250.816 29.7437 245.121 29.7437C239.426 29.7437 234.49 30.9967 230.313 33.5026C226.137 36.0085 222.897 39.527 220.593 44.0579C218.315 48.5888 217.176 53.8665 217.176 59.8908C217.176 65.9152 218.315 71.1802 220.593 75.6858C222.897 80.1914 226.137 83.6972 230.313 86.2031ZM252.943 76.4072C250.867 78.1031 248.285 78.9511 245.197 78.9511C242.033 78.9511 239.4 78.1031 237.299 76.4072C235.224 74.686 233.667 72.3825 232.629 69.4969C231.617 66.6113 231.111 63.3966 231.111 59.8529C231.111 56.2838 231.617 53.0565 232.629 50.1709C233.667 47.2599 235.224 44.9438 237.299 43.2226C239.4 41.5013 242.033 40.6407 245.197 40.6407C248.285 40.6407 250.867 41.5013 252.943 43.2226C255.018 44.9438 256.562 47.2599 257.575 50.1709C258.613 53.0565 259.131 56.2838 259.131 59.8529C259.131 63.3966 258.613 66.6113 257.575 69.4969C256.562 72.3825 255.018 74.686 252.943 76.4072ZM179.691 88.823V30.5031H193.018V40.2231H193.626C194.689 36.8565 196.512 34.262 199.093 32.4395C201.701 30.5917 204.675 29.6678 208.016 29.6678C208.775 29.6678 209.623 29.7057 210.56 29.7817C211.522 29.8323 212.319 29.9209 212.952 30.0475V42.691C212.37 42.4885 211.446 42.3113 210.18 42.1595C208.94 41.9823 207.738 41.8937 206.573 41.8937C204.067 41.8937 201.815 42.4379 199.815 43.5263C197.84 44.5895 196.284 46.0702 195.145 47.9687C194.006 49.8671 193.436 52.0566 193.436 54.5373V88.823H179.691ZM165.045 88.823V11.0631H150.959V88.823H165.045Z" fill="#272525"/>
</svg>
