<svg width="570" height="100" viewBox="0 0 570 100" fill="none" xmlns="http://www.w3.org/2000/svg">
<path opacity="0.8" fill-rule="evenodd" clip-rule="evenodd" d="M63.2036 3.05176e-05C63.2036 16.5084 56.6457 32.3406 44.9725 44.0138C42.9995 45.9868 40.9076 47.8137 38.7138 49.4875L38.7138 100C38.7138 83.4917 45.2718 67.6594 56.9449 55.9862C58.9179 54.0132 61.0098 52.1863 63.2036 50.5126L63.2036 3.05176e-05Z" fill="white"/>
<path opacity="0.8" fill-rule="evenodd" clip-rule="evenodd" d="M38.7138 0.0240173C38.7075 10.0286 34.7304 19.6221 27.6556 26.6969C20.5752 33.7773 10.972 37.7551 0.95874 37.7551V62.2449C14.6768 62.2449 27.9281 57.7165 38.7138 49.4875V0.0240173Z" fill="white"/>
<path opacity="0.8" fill-rule="evenodd" clip-rule="evenodd" d="M63.2036 99.976C63.21 89.9714 67.1871 80.3779 74.2619 73.3031C81.3423 66.2227 90.9455 62.2449 100.959 62.2449V37.7551C87.2406 37.7551 73.9894 42.2835 63.2036 50.5125V99.976Z" fill="white"/>
<path fill-rule="evenodd" clip-rule="evenodd" d="M44.9725 44.0138C56.6457 32.3406 63.2036 16.5084 63.2036 3.05176e-05H38.7138V49.4875C40.9076 47.8137 42.9995 45.9868 44.9725 44.0138Z" fill="white"/>
<path fill-rule="evenodd" clip-rule="evenodd" d="M38.7138 99.9656C38.7138 99.9771 38.7138 99.9886 38.7138 100H63.2036C63.2036 99.9913 63.2036 99.9825 63.2036 99.9738V50.5126C61.0098 52.1864 58.9179 54.0132 56.9449 55.9863C45.2799 67.6513 38.7229 83.4697 38.7138 99.9656Z" fill="white"/>
<path fill-rule="evenodd" clip-rule="evenodd" d="M402.852 37.2995H417.053C416.47 32.9711 415.23 29.1236 413.332 25.757C411.459 22.3652 409.067 19.5049 406.156 17.1761C403.245 14.8221 399.929 13.0375 396.208 11.8225C392.487 10.6075 388.462 10 384.134 10C377.35 10 371.275 11.5821 365.909 14.7461C360.543 17.9102 356.303 22.4791 353.189 28.4528C350.076 34.4012 348.519 41.5647 348.519 49.9431C348.519 58.2962 350.063 65.4596 353.151 71.4334C356.24 77.4071 360.467 81.976 365.833 85.1401C371.199 88.3041 377.299 89.8861 384.134 89.8861C388.766 89.8861 392.981 89.2027 396.777 87.8358C400.574 86.4436 403.89 84.5199 406.725 82.0646C409.56 79.584 411.851 76.7237 413.598 73.4837C415.369 70.2437 416.521 66.7759 417.053 63.0803L402.852 63.0043C402.422 65.2824 401.637 67.3074 400.498 69.0793C399.385 70.8512 398.005 72.3446 396.36 73.5596C394.74 74.7746 392.905 75.6985 390.854 76.3313C388.829 76.9388 386.652 77.2426 384.324 77.2426C380.122 77.2426 376.388 76.2174 373.123 74.1671C369.883 72.0915 367.326 69.0287 365.453 64.9787C363.605 60.9034 362.682 55.8915 362.682 49.9431C362.682 44.0959 363.605 39.1473 365.453 35.0973C367.301 31.022 369.858 27.9339 373.123 25.833C376.388 23.7067 380.134 22.6436 384.362 22.6436C386.741 22.6436 388.956 22.9727 391.006 23.6308C393.082 24.2636 394.93 25.2128 396.55 26.4785C398.17 27.7441 399.524 29.2881 400.612 31.1106C401.701 32.9078 402.447 34.9708 402.852 37.2995ZM504.485 88.823V11.0632H490.74V88.823H504.485ZM529.06 86.1272C533.237 88.6838 538.236 89.9621 544.058 89.9621C548.943 89.9621 553.196 89.0761 556.815 87.3043C560.435 85.5071 563.295 83.0265 565.396 79.8624C567.497 76.673 568.712 73.0154 569.041 68.8895H555.904C555.499 70.9904 554.752 72.7749 553.664 74.243C552.576 75.7112 551.221 76.8376 549.601 77.6223C548.007 78.3816 546.197 78.7613 544.172 78.7613C541.311 78.7613 538.818 78.0019 536.692 76.4832C534.591 74.9391 532.958 72.7496 531.794 69.9146C530.63 67.0543 530.047 63.6371 530.047 59.6631C530.047 55.7396 530.63 52.3731 531.794 49.5634C532.984 46.7537 534.642 44.6022 536.768 43.1087C538.894 41.59 541.362 40.8306 544.172 40.8306C547.488 40.8306 550.133 41.7798 552.107 43.6783C554.107 45.5514 555.373 47.8928 555.904 50.7025H569.041C568.738 46.5006 567.497 42.8303 565.32 39.6915C563.143 36.5275 560.22 34.0848 556.55 32.3636C552.905 30.617 548.715 29.7438 543.982 29.7438C538.287 29.7438 533.351 31.022 529.174 33.5786C525.023 36.1098 521.808 39.6536 519.53 44.2098C517.252 48.7407 516.113 53.9678 516.113 59.8909C516.113 65.7887 517.227 71.0031 519.454 75.534C521.707 80.0396 524.909 83.5707 529.06 86.1272ZM446.127 90C442.432 90 439.103 89.3419 436.141 88.0257C433.205 86.6841 430.876 84.7097 429.155 82.1026C427.459 79.4954 426.611 76.2807 426.611 72.4585C426.611 69.1679 427.219 66.4468 428.434 64.2952C429.649 62.1437 431.307 60.4224 433.408 59.1315C435.509 57.8406 437.875 56.866 440.508 56.2079C443.166 55.5245 445.912 55.0309 448.747 54.7271C452.164 54.3728 454.936 54.0564 457.062 53.7779C459.188 53.4742 460.733 53.0186 461.694 52.4111C462.682 51.7782 463.175 50.8037 463.175 49.4875V49.2597C463.175 46.3993 462.327 44.1845 460.631 42.6151C458.935 41.0458 456.493 40.2611 453.303 40.2611C449.937 40.2611 447.266 40.9951 445.292 42.4633C443.343 43.9314 442.027 45.6653 441.343 47.665L428.51 45.8425C429.522 42.2987 431.193 39.3372 433.522 36.9578C435.85 34.5531 438.698 32.7559 442.065 31.5662C445.431 30.3513 449.152 29.7438 453.227 29.7438C456.037 29.7438 458.834 30.0728 461.618 30.7309C464.403 31.3891 466.947 32.4775 469.25 33.9962C471.554 35.4897 473.401 37.5273 474.794 40.1092C476.211 42.6911 476.92 45.9184 476.92 49.7912V88.823H463.707V80.8116H463.251C462.416 82.4316 461.239 83.9504 459.72 85.3679C458.227 86.7601 456.341 87.8865 454.063 88.7471C451.81 89.5824 449.165 90 446.127 90ZM449.696 79.9004C452.455 79.9004 454.847 79.3562 456.872 78.2677C458.897 77.154 460.454 75.6859 461.543 73.8634C462.656 72.0409 463.213 70.0538 463.213 67.9023V61.0299C462.783 61.3843 462.049 61.7134 461.011 62.0171C459.998 62.3209 458.859 62.5867 457.594 62.8145C456.328 63.0423 455.075 63.2448 453.835 63.422C452.595 63.5992 451.519 63.751 450.608 63.8776C448.557 64.156 446.722 64.6117 445.102 65.2445C443.482 65.8773 442.204 66.7632 441.267 67.9023C440.331 69.016 439.862 70.4588 439.862 72.2307C439.862 74.7619 440.786 76.673 442.634 77.964C444.482 79.2549 446.836 79.9004 449.696 79.9004ZM298.477 54.6512V88.823H284.732V30.5031H297.869V40.4129H298.552C299.894 37.1476 302.033 34.5531 304.969 32.6294C307.931 30.7056 311.588 29.7438 315.942 29.7438C319.967 29.7438 323.473 30.6044 326.459 32.3256C329.472 34.0469 331.8 36.5401 333.446 39.8055C335.116 43.0708 335.939 47.0322 335.914 51.6896V88.823H322.169V53.8159C322.169 49.9178 321.156 46.8676 319.131 44.6654C317.132 42.4633 314.36 41.3622 310.816 41.3622C308.412 41.3622 306.273 41.8937 304.4 42.9569C302.552 43.9947 301.096 45.5008 300.033 47.4751C298.995 49.4495 298.477 51.8415 298.477 54.6512ZM230.313 86.2032C234.49 88.7091 239.426 89.9621 245.121 89.9621C250.816 89.9621 255.752 88.7091 259.929 86.2032C264.105 83.6973 267.333 80.1915 269.611 75.6859C271.914 71.1802 273.066 65.9152 273.066 59.8909C273.066 53.8665 271.914 48.5889 269.611 44.0579C267.333 39.527 264.105 36.0086 259.929 33.5027C255.752 30.9967 250.816 29.7438 245.121 29.7438C239.426 29.7438 234.49 30.9967 230.313 33.5027C226.137 36.0086 222.897 39.527 220.593 44.0579C218.315 48.5889 217.176 53.8665 217.176 59.8909C217.176 65.9152 218.315 71.1802 220.593 75.6859C222.897 80.1915 226.137 83.6973 230.313 86.2032ZM252.943 76.4073C250.867 78.1032 248.285 78.9512 245.197 78.9512C242.033 78.9512 239.4 78.1032 237.299 76.4073C235.224 74.686 233.667 72.3826 232.629 69.497C231.617 66.6113 231.111 63.3967 231.111 59.8529C231.111 56.2839 231.617 53.0565 232.629 50.1709C233.667 47.26 235.224 44.9439 237.299 43.2226C239.4 41.5014 242.033 40.6408 245.197 40.6408C248.285 40.6408 250.867 41.5014 252.943 43.2226C255.018 44.9439 256.562 47.26 257.575 50.1709C258.613 53.0565 259.131 56.2839 259.131 59.8529C259.131 63.3967 258.613 66.6113 257.575 69.497C256.562 72.3826 255.018 74.686 252.943 76.4073ZM179.691 88.823V30.5031H193.018V40.2231H193.626C194.689 36.8566 196.512 34.262 199.093 32.4395C201.701 30.5917 204.675 29.6678 208.016 29.6678C208.775 29.6678 209.623 29.7058 210.56 29.7817C211.522 29.8323 212.319 29.9209 212.952 30.0475V42.6911C212.37 42.4886 211.446 42.3114 210.18 42.1595C208.94 41.9823 207.738 41.8937 206.573 41.8937C204.067 41.8937 201.815 42.4379 199.815 43.5264C197.84 44.5895 196.284 46.0703 195.145 47.9687C194.006 49.8672 193.436 52.0567 193.436 54.5373V88.823H179.691ZM165.045 88.823V11.0632H150.959V88.823H165.045Z" fill="white"/>
</svg>
