<svg width="155" height="20" viewBox="0 0 155 20" fill="none" xmlns="http://www.w3.org/2000/svg">
<path opacity="0.8" fill-rule="evenodd" clip-rule="evenodd" d="M12.449 0C12.449 3.30167 11.1374 6.46812 8.80275 8.80276C8.40822 9.19728 7.98994 9.5626 7.55127 9.8973V19.9173C7.57297 16.6455 8.88208 13.5124 11.1972 11.1972C11.5919 10.8026 12.0104 10.4371 12.4492 10.1023V0H12.449ZM12.4492 19.9356C12.449 19.9571 12.449 19.9785 12.449 20L12.4492 20V19.9356Z" fill="#F2994A"/>
<path opacity="0.8" fill-rule="evenodd" clip-rule="evenodd" d="M0 12.449C2.74363 12.449 5.39387 11.5433 7.55103 9.89748V0H7.55102C7.55102 2.00265 6.75547 3.92329 5.33938 5.33938C3.92329 6.75547 2.00265 7.55102 0 7.55102V12.449Z" fill="#F2994A"/>
<path opacity="0.8" fill-rule="evenodd" clip-rule="evenodd" d="M20 7.55102C17.2564 7.55102 14.6061 8.45671 12.449 10.1025V20H12.449C12.449 17.9973 13.2445 16.0767 14.6606 14.6606C16.0767 13.2445 17.9973 12.449 20 12.449V7.55102Z" fill="#F2994A"/>
<path fill-rule="evenodd" clip-rule="evenodd" d="M8.80275 8.80276C11.1374 6.46812 12.449 3.30167 12.449 0H7.55127V9.8973C7.98994 9.5626 8.40823 9.19729 8.80275 8.80276Z" fill="#F2994A"/>
<path fill-rule="evenodd" clip-rule="evenodd" d="M12.449 20H7.55126V19.9289C7.56994 16.6529 8.8794 13.5151 11.1973 11.1972C11.5919 10.8026 12.0104 10.4372 12.4492 10.1024V19.9446C12.4491 19.9631 12.449 19.9815 12.449 20Z" fill="#F2994A"/>
<path fill-rule="evenodd" clip-rule="evenodd" d="M80.3787 7.45989H83.2188C83.1024 6.59421 82.8543 5.82471 82.4746 5.1514C82.1 4.47303 81.6216 3.90096 81.0394 3.43522C80.4572 2.9644 79.794 2.6075 79.0498 2.3645C78.3056 2.1215 77.5007 2 76.635 2C75.2783 2 74.0633 2.31641 72.99 2.94922C71.9168 3.58203 71.0688 4.49581 70.4461 5.69055C69.8234 6.88024 69.5121 8.31292 69.5121 9.98861C69.5121 11.6592 69.8209 13.0919 70.4385 14.2867C71.0562 15.4814 71.9016 16.3952 72.9748 17.028C74.0481 17.6608 75.2682 17.9772 76.635 17.9772C77.5615 17.9772 78.4044 17.8405 79.1637 17.5672C79.9231 17.2887 80.5863 16.904 81.1533 16.4129C81.7203 15.9168 82.1784 15.3447 82.5278 14.6967C82.8821 14.0487 83.1125 13.3552 83.2188 12.616L80.3787 12.6009C80.2927 13.0565 80.1357 13.4615 79.9079 13.8158C79.6852 14.1702 79.4093 14.4689 79.0802 14.7119C78.7562 14.9549 78.3892 15.1397 77.9791 15.2663C77.5741 15.3878 77.1387 15.4485 76.673 15.4485C75.8326 15.4485 75.0859 15.2435 74.4328 14.8334C73.7848 14.4183 73.2735 13.8057 72.8989 12.9957C72.5293 12.1807 72.3446 11.1783 72.3446 9.98861C72.3446 8.81917 72.5293 7.82946 72.8989 7.01946C73.2685 6.2044 73.7798 5.58677 74.4328 5.16659C75.0859 4.74134 75.8351 4.52871 76.6806 4.52871C77.1565 4.52871 77.5994 4.59453 78.0095 4.72615C78.4246 4.85271 78.7942 5.04256 79.1182 5.29568C79.4422 5.5488 79.713 5.85762 79.9307 6.22212C80.1484 6.58155 80.2977 6.99415 80.3787 7.45989ZM100.705 17.7646V2.21264H97.9563V17.7646H100.705ZM105.62 17.2254C106.456 17.7368 107.455 17.9924 108.62 17.9924C109.597 17.9924 110.447 17.8152 111.171 17.4608C111.895 17.1014 112.467 16.6053 112.887 15.9725C113.308 15.3346 113.551 14.6031 113.616 13.7779H110.989C110.908 14.1981 110.759 14.555 110.541 14.8486C110.323 15.1422 110.052 15.3675 109.728 15.5244C109.41 15.6763 109.048 15.7523 108.643 15.7523C108.071 15.7523 107.572 15.6004 107.147 15.2966C106.726 14.9878 106.4 14.5499 106.167 13.9829C105.934 13.4109 105.818 12.7274 105.818 11.9326C105.818 11.1479 105.934 10.4746 106.167 9.91268C106.405 9.35074 106.737 8.92043 107.162 8.62174C107.587 8.31799 108.081 8.16612 108.643 8.16612C109.306 8.16612 109.835 8.35596 110.23 8.73565C110.63 9.11027 110.883 9.57855 110.989 10.1405H113.616C113.556 9.30012 113.308 8.56606 112.872 7.93831C112.437 7.3055 111.852 6.81697 111.118 6.47272C110.389 6.1234 109.551 5.94875 108.605 5.94875C107.466 5.94875 106.478 6.2044 105.643 6.71571C104.813 7.22196 104.17 7.93071 103.714 8.84196C103.259 9.74815 103.031 10.7936 103.031 11.9782C103.031 13.1577 103.254 14.2006 103.699 15.1068C104.15 16.0079 104.79 16.7141 105.62 17.2254ZM89.0337 18C88.2945 18 87.6288 17.8684 87.0365 17.6051C86.4493 17.3368 85.9835 16.9419 85.6393 16.4205C85.3001 15.8991 85.1305 15.2561 85.1305 14.4917C85.1305 13.8336 85.252 13.2894 85.495 12.859C85.738 12.4287 86.0696 12.0845 86.4898 11.8263C86.91 11.5681 87.3833 11.3732 87.9098 11.2416C88.4414 11.1049 88.9906 11.0062 89.5576 10.9454C90.2411 10.8746 90.7954 10.8113 91.2207 10.7556C91.6459 10.6948 91.9547 10.6037 92.1471 10.4822C92.3445 10.3556 92.4433 10.1607 92.4433 9.89749V9.85193C92.4433 9.27987 92.2737 8.8369 91.9345 8.52302C91.5953 8.20915 91.1068 8.05221 90.4689 8.05221C89.7956 8.05221 89.2615 8.19902 88.8666 8.49265C88.4768 8.78627 88.2136 9.13305 88.0769 9.53299L85.5102 9.16849C85.7127 8.45974 86.0468 7.86743 86.5126 7.39156C86.9783 6.91062 87.5478 6.55118 88.2211 6.31325C88.8945 6.07025 89.6386 5.94875 90.4537 5.94875C91.0156 5.94875 91.575 6.01456 92.1319 6.14619C92.6888 6.27781 93.1976 6.4955 93.6583 6.79925C94.1189 7.09793 94.4885 7.50546 94.7669 8.02184C95.0504 8.53821 95.1922 9.18368 95.1922 9.95824V17.7646H92.5496V16.1623H92.4584C92.2914 16.4863 92.056 16.7901 91.7522 17.0736C91.4535 17.352 91.0764 17.5773 90.6208 17.7494C90.1702 17.9165 89.6412 18 89.0337 18ZM89.7475 15.9801C90.2993 15.9801 90.7777 15.8712 91.1827 15.6535C91.5877 15.4308 91.899 15.1372 92.1167 14.7727C92.3395 14.4082 92.4509 14.0108 92.4509 13.5805V12.206C92.3648 12.2769 92.218 12.3427 92.0104 12.4034C91.8079 12.4642 91.5801 12.5173 91.327 12.5629C91.0739 12.6085 90.8233 12.649 90.5752 12.6844C90.3271 12.7198 90.112 12.7502 89.9297 12.7755C89.5197 12.8312 89.1526 12.9223 88.8286 13.0489C88.5046 13.1755 88.249 13.3526 88.0617 13.5805C87.8744 13.8032 87.7807 14.0918 87.7807 14.4461C87.7807 14.9524 87.9655 15.3346 88.335 15.5928C88.7046 15.851 89.1754 15.9801 89.7475 15.9801ZM59.5035 10.9302V17.7646H56.7546V6.10062H59.382V8.08259H59.5187C59.787 7.42953 60.2148 6.91062 60.8021 6.52587C61.3944 6.14112 62.1259 5.94875 62.9967 5.94875C63.8016 5.94875 64.5027 6.12087 65.1001 6.46512C65.7026 6.80937 66.1683 7.30803 66.4974 7.96109C66.8315 8.61415 66.996 9.40643 66.991 10.3379V17.7646H64.242V10.7632C64.242 9.98355 64.0395 9.37352 63.6345 8.93309C63.2346 8.49265 62.6802 8.27243 61.9715 8.27243C61.4906 8.27243 61.0628 8.37874 60.6882 8.59137C60.3186 8.79893 60.0275 9.10015 59.8149 9.49502C59.6073 9.8899 59.5035 10.3683 59.5035 10.9302ZM45.8709 17.2406C46.7062 17.7418 47.6934 17.9924 48.8325 17.9924C49.9715 17.9924 50.9587 17.7418 51.794 17.2406C52.6293 16.7394 53.2748 16.0383 53.7304 15.1372C54.1911 14.236 54.4214 13.183 54.4214 11.9782C54.4214 10.7733 54.1911 9.71777 53.7304 8.81159C53.2748 7.9054 52.6293 7.20171 51.794 6.70053C50.9587 6.19934 49.9715 5.94875 48.8325 5.94875C47.6934 5.94875 46.7062 6.19934 45.8709 6.70053C45.0356 7.20171 44.3876 7.9054 43.9269 8.81159C43.4713 9.71777 43.2435 10.7733 43.2435 11.9782C43.2435 13.183 43.4713 14.236 43.9269 15.1372C44.3876 16.0383 45.0356 16.7394 45.8709 17.2406ZM50.3968 15.2814C49.9816 15.6206 49.4653 15.7902 48.8476 15.7902C48.2148 15.7902 47.6883 15.6206 47.2682 15.2814C46.853 14.9372 46.5417 14.4765 46.3341 13.8994C46.1316 13.3223 46.0304 12.6793 46.0304 11.9706C46.0304 11.2568 46.1316 10.6113 46.3341 10.0342C46.5417 9.45199 46.853 8.98877 47.2682 8.64452C47.6883 8.30027 48.2148 8.12815 48.8476 8.12815C49.4653 8.12815 49.9816 8.30027 50.3968 8.64452C50.8119 8.98877 51.1207 9.45199 51.3232 10.0342C51.5308 10.6113 51.6345 11.2568 51.6345 11.9706C51.6345 12.6793 51.5308 13.3223 51.3232 13.8994C51.1207 14.4765 50.8119 14.9372 50.3968 15.2814ZM35.7466 17.7646V6.10061H38.412V8.0446H38.5335C38.7461 7.37129 39.1106 6.85239 39.627 6.48789C40.1484 6.11833 40.7433 5.93354 41.4115 5.93354C41.5634 5.93354 41.733 5.94114 41.9203 5.95632C42.1127 5.96645 42.2721 5.98417 42.3987 6.00948V8.53819C42.2823 8.49769 42.0975 8.46226 41.8444 8.43188C41.5963 8.39645 41.3558 8.37873 41.1229 8.37873C40.6218 8.37873 40.1712 8.48757 39.7713 8.70526C39.3764 8.91788 39.065 9.21404 38.8372 9.59372C38.6094 9.97341 38.4955 10.4113 38.4955 10.9074V17.7646H35.7466ZM32.8173 17.7646V2.21264H30V17.7646H32.8173Z" fill="#272525"/>
<rect x="122.116" y="2.5" width="32" height="15" rx="3.5" stroke="#E0E0E0"/>
<path d="M128.77 13.5H126.415V6.22727H128.844C129.557 6.22727 130.169 6.37287 130.68 6.66406C131.191 6.95289 131.583 7.36837 131.856 7.91051C132.13 8.45028 132.267 9.09777 132.267 9.85298C132.267 10.6106 132.129 11.2616 131.852 11.8061C131.577 12.3506 131.18 12.7696 130.659 13.0632C130.138 13.3544 129.508 13.5 128.77 13.5ZM127.513 12.5412H128.709C129.263 12.5412 129.724 12.437 130.091 12.2287C130.458 12.018 130.732 11.7138 130.915 11.3161C131.097 10.916 131.188 10.4283 131.188 9.85298C131.188 9.28243 131.097 8.7983 130.915 8.40057C130.735 8.00284 130.466 7.70099 130.108 7.49503C129.751 7.28906 129.307 7.18608 128.777 7.18608H127.513V12.5412ZM135.844 13.6101C135.333 13.6101 134.887 13.4929 134.506 13.2585C134.124 13.0241 133.829 12.6963 133.618 12.2749C133.407 11.8535 133.302 11.361 133.302 10.7976C133.302 10.2318 133.407 9.73698 133.618 9.31321C133.829 8.88944 134.124 8.56037 134.506 8.32599C134.887 8.09162 135.333 7.97443 135.844 7.97443C136.356 7.97443 136.802 8.09162 137.183 8.32599C137.564 8.56037 137.86 8.88944 138.071 9.31321C138.282 9.73698 138.387 10.2318 138.387 10.7976C138.387 11.361 138.282 11.8535 138.071 12.2749C137.86 12.6963 137.564 13.0241 137.183 13.2585C136.802 13.4929 136.356 13.6101 135.844 13.6101ZM135.848 12.7188C136.179 12.7188 136.454 12.6312 136.672 12.456C136.89 12.2808 137.051 12.0476 137.155 11.7564C137.261 11.4652 137.315 11.1444 137.315 10.794C137.315 10.446 137.261 10.1264 137.155 9.83523C137.051 9.54167 136.89 9.30611 136.672 9.12855C136.454 8.95099 136.179 8.86222 135.848 8.86222C135.514 8.86222 135.237 8.95099 135.017 9.12855C134.799 9.30611 134.637 9.54167 134.53 9.83523C134.426 10.1264 134.374 10.446 134.374 10.794C134.374 11.1444 134.426 11.4652 134.53 11.7564C134.637 12.0476 134.799 12.2808 135.017 12.456C135.237 12.6312 135.514 12.7188 135.848 12.7188ZM141.87 13.6101C141.342 13.6101 140.887 13.4905 140.506 13.2514C140.127 13.0099 139.836 12.6773 139.633 12.2536C139.429 11.8298 139.327 11.3445 139.327 10.7976C139.327 10.2436 139.431 9.75473 139.64 9.33097C139.848 8.90483 140.142 8.57221 140.52 8.3331C140.899 8.09399 141.345 7.97443 141.859 7.97443C142.273 7.97443 142.643 8.05137 142.967 8.20526C143.291 8.35677 143.553 8.56984 143.752 8.84446C143.953 9.11908 144.073 9.43987 144.111 9.80682H143.077C143.02 9.55114 142.89 9.33097 142.687 9.14631C142.485 8.96165 142.215 8.86932 141.877 8.86932C141.581 8.86932 141.322 8.94744 141.099 9.10369C140.879 9.25758 140.707 9.47775 140.584 9.7642C140.461 10.0483 140.4 10.3845 140.4 10.7727C140.4 11.1705 140.46 11.5137 140.581 11.8026C140.701 12.0914 140.872 12.3151 141.092 12.4737C141.315 12.6323 141.576 12.7116 141.877 12.7116C142.078 12.7116 142.26 12.675 142.424 12.6016C142.589 12.5258 142.728 12.4181 142.839 12.2784C142.953 12.1387 143.032 11.9706 143.077 11.7741H144.111C144.073 12.1269 143.958 12.4418 143.766 12.7188C143.574 12.9957 143.317 13.2135 142.995 13.3722C142.676 13.5308 142.301 13.6101 141.87 13.6101ZM149.333 9.37713L148.371 9.54759C148.331 9.42448 148.267 9.30729 148.179 9.19602C148.094 9.08475 147.978 8.99361 147.831 8.92259C147.684 8.85156 147.501 8.81605 147.281 8.81605C146.98 8.81605 146.729 8.88352 146.528 9.01847C146.327 9.15104 146.226 9.32268 146.226 9.53338C146.226 9.71567 146.294 9.86245 146.429 9.97372C146.563 10.085 146.781 10.1761 147.082 10.2472L147.948 10.446C148.45 10.562 148.824 10.7408 149.071 10.9822C149.317 11.2237 149.44 11.5374 149.44 11.9233C149.44 12.25 149.345 12.5412 149.156 12.7969C148.969 13.0502 148.707 13.2491 148.371 13.3935C148.037 13.5379 147.65 13.6101 147.21 13.6101C146.599 13.6101 146.101 13.4799 145.715 13.2195C145.329 12.9567 145.092 12.5838 145.005 12.1009L146.031 11.9446C146.095 12.2121 146.226 12.4145 146.425 12.5518C146.624 12.6868 146.883 12.7543 147.203 12.7543C147.551 12.7543 147.829 12.6821 148.037 12.5376C148.246 12.3909 148.35 12.2121 148.35 12.0014C148.35 11.831 148.286 11.6877 148.158 11.5717C148.032 11.4557 147.84 11.3681 147.579 11.3089L146.656 11.1065C146.147 10.9905 145.77 10.8059 145.527 10.5526C145.285 10.2992 145.164 9.97846 145.164 9.5902C145.164 9.26823 145.254 8.98651 145.434 8.74503C145.614 8.50355 145.863 8.31534 146.18 8.1804C146.497 8.04309 146.861 7.97443 147.27 7.97443C147.86 7.97443 148.324 8.10227 148.662 8.35795C149.001 8.61127 149.224 8.95099 149.333 9.37713Z" fill="#757575"/>
</svg>
