<svg width="600" height="600" viewBox="0 0 600 600" fill="none" xmlns="http://www.w3.org/2000/svg">
<rect width="600" height="600" rx="20" fill="#F2994A"/>
<path opacity="0.8" fill-rule="evenodd" clip-rule="evenodd" d="M348.98 100C348.98 166.034 322.748 229.362 276.055 276.055C268.163 283.947 259.796 291.255 251.021 297.95L251.021 500L348.98 500H251.021C251.021 433.966 277.252 370.637 323.945 323.945C331.837 316.053 340.204 308.745 348.98 302.05L348.98 100Z" fill="white"/>
<path opacity="0.8" fill-rule="evenodd" clip-rule="evenodd" d="M251.021 100.068C251.003 140.096 235.094 178.481 206.788 206.787C178.466 235.109 140.053 251.02 100 251.02V348.979C154.873 348.979 207.877 330.866 251.021 297.95V100.068Z" fill="white"/>
<path opacity="0.8" fill-rule="evenodd" clip-rule="evenodd" d="M348.98 499.882C349.011 459.872 364.918 421.507 393.213 393.213C421.534 364.891 459.947 348.98 500 348.98V251.02C445.128 251.02 392.123 269.134 348.98 302.05V499.882Z" fill="white"/>
<path fill-rule="evenodd" clip-rule="evenodd" d="M276.055 276.055C322.748 229.362 348.98 166.034 348.98 100H251.021V297.95C259.796 291.255 268.163 283.947 276.055 276.055Z" fill="white"/>
<path fill-rule="evenodd" clip-rule="evenodd" d="M348.98 302.05V499.895C348.98 499.93 348.98 499.965 348.98 500L251.021 500C251.021 499.946 251.02 499.891 251.021 499.837C251.064 433.862 277.291 370.599 323.945 323.945C331.837 316.053 340.204 308.745 348.98 302.05Z" fill="white"/>
</svg>
